<svg width="24" height="24" viewBox="0 0 24 24" fill="none" xmlns="http://www.w3.org/2000/svg">
<path d="M3.02384 13.3288C3.3398 17.693 7.17522 21.2438 11.7654 21.4387C15.004 21.5743 17.9004 20.1167 19.6382 17.8202C20.3578 16.8795 19.9717 16.2524 18.7693 16.4643C18.1812 16.566 17.5756 16.6083 16.9437 16.5829C12.6519 16.4134 9.14121 12.9474 9.12365 8.8543C9.11488 7.75264 9.35185 6.71029 9.78191 5.76117C10.2558 4.71035 9.68536 4.21036 8.58827 4.6595C5.11269 6.07472 2.73421 9.45598 3.02384 13.3288Z" stroke="white" stroke-width="1.5" stroke-linecap="round" stroke-linejoin="round"/>
<path d="M20.4614 5.38428L20.9509 5.4819C20.9616 5.48404 20.9616 5.49938 20.9509 5.50152L20.4614 5.59914C19.2737 5.83603 18.3449 6.76382 18.1067 7.95128L18.0098 8.43453C18.0077 8.44525 17.9924 8.44525 17.9902 8.43453L17.8933 7.95128C17.6551 6.76382 16.7264 5.83603 15.5386 5.59914L15.0492 5.50152C15.0384 5.49938 15.0384 5.48404 15.0492 5.4819L15.5386 5.38428C16.7264 5.1474 17.6551 4.2196 17.8933 3.03214L17.9902 2.54889C17.9924 2.53818 18.0077 2.53818 18.0098 2.54889L18.1067 3.03214C18.3449 4.2196 19.2737 5.1474 20.4614 5.38428Z" stroke="white" stroke-width="1.5" stroke-linecap="round"/>
<path d="M17.9234 11.4496L17.9715 11.4656C17.9806 11.4686 17.9806 11.4815 17.9715 11.4846L17.9234 11.5005C17.0274 11.7984 16.3238 12.5007 16.0245 13.3963L16.0095 13.4412C16.0065 13.4503 15.9936 13.4503 15.9905 13.4412L15.9755 13.3963C15.6762 12.5007 14.9727 11.7984 14.0766 11.5005L14.0285 11.4846C14.0194 11.4815 14.0194 11.4686 14.0285 11.4656L14.0766 11.4496C14.9727 11.1517 15.6762 10.4494 15.9755 9.55382L15.9905 9.50896C15.9936 9.49986 16.0065 9.49986 16.0095 9.50896L16.0245 9.55382C16.3238 10.4494 17.0274 11.1517 17.9234 11.4496Z" stroke="white" stroke-width="1.5" stroke-linecap="round"/>
</svg>
