<svg width="24" height="24" viewBox="0 0 24 24" fill="none" xmlns="http://www.w3.org/2000/svg">
<path d="M15 16.951C16.3642 16.9678 17.1148 16.9883 18.0061 16.9883C23.3632 17.3034 22.9042 11.1493 19.1526 10.9691C19.0062 10.9621 18.9037 10.8072 18.9536 10.6694C21.307 4.17509 9.92684 0.729597 8.05419 8.33208C8.03469 8.41126 7.96852 8.47544 7.88832 8.49017C4.97315 9.02553 3.65746 11.4238 4.07599 13.5353" stroke="white" stroke-width="1.5" stroke-linecap="round"/>
<path d="M12.6301 15.2274C14.1501 10.8029 6.23232 8.48681 4.88347 13.6612C4.86293 13.74 4.7955 13.8035 4.71548 13.8186C0.804218 14.5571 1.01663 19.95 6.01475 19.6783C7.18293 19.6148 10.4284 19.6945 11.9256 19.6945C14.4625 19.8403 15.1589 17.9862 14.5484 16.7026C14.2562 16.0881 13.6643 15.6044 12.8315 15.5335C12.6849 15.5211 12.5823 15.3666 12.6301 15.2274Z" stroke="white" stroke-width="1.5"/>
</svg>
