<svg width="24" height="24" viewBox="0 0 24 24" fill="none" xmlns="http://www.w3.org/2000/svg">
<path d="M10.6333 7.14198C10.193 5.53883 8.97398 4.26576 7.41681 3.7064C6.78657 3.47863 6.48144 3.78565 6.7801 4.38099C7.05096 4.91865 7.21621 5.51615 7.24521 6.15538C7.36143 8.52993 5.49571 10.645 3.08956 10.8714C2.7353 10.905 2.39374 10.8984 2.06022 10.857C1.37811 10.77 1.18046 11.1453 1.61379 11.6694C2.20294 12.3896 2.98996 12.9449 3.88904 13.2616" stroke="white" stroke-width="1.5" stroke-linecap="round" stroke-linejoin="round"/>
<path d="M20.0538 14.6341C22.2983 8.60691 11.2953 5.41755 9.47459 12.4735C9.45426 12.5523 9.38623 12.6159 9.30614 12.6301C3.9013 13.5874 4.17279 20.8835 11.0351 20.5171C12.6341 20.4317 17.0765 20.5389 19.1259 20.5389C24.3158 20.8318 23.8783 15.1187 20.2519 14.9371C20.1044 14.9297 20.0022 14.7725 20.0538 14.6341Z" stroke="white" stroke-width="1.5"/>
</svg>
