<svg width="24" height="24" viewBox="0 0 24 24" fill="none" xmlns="http://www.w3.org/2000/svg">
<path d="M20.0538 14.6341C22.2983 8.60691 11.2953 5.41755 9.47459 12.4735C9.45426 12.5523 9.38623 12.6159 9.30614 12.6301C3.9013 13.5874 4.17279 20.8835 11.0351 20.5171C12.6341 20.4317 17.0765 20.5389 19.1259 20.5389C24.3158 20.8318 23.8783 15.1187 20.2519 14.9371C20.1044 14.9297 20.0022 14.7725 20.0538 14.6341Z" stroke="white" stroke-width="1.5"/>
<path d="M9.62936 4.72588L10.0907 3.71914M5.38507 4.55116L4.98299 3.44995M1 12.1412L2.05044 11.7515M2.26579 7.45768L1.26705 6.99262M9.72776 7.46067C8.83185 6.51918 7.43501 6.14716 6.14277 6.62656C4.40235 7.27224 3.51072 9.21785 4.15127 10.9722C4.28566 11.3403 4.47682 11.6707 4.71108 11.9571" stroke="white" stroke-width="1.5" stroke-linecap="round"/>
</svg>
