<svg width="24" height="24" viewBox="0 0 24 24" fill="none" xmlns="http://www.w3.org/2000/svg">
<g clip-path="url(#clip0_161_3058)">
<path d="M19.6417 12.3935C21.7527 6.53027 11.37 3.42937 9.64754 10.2916C9.62771 10.3707 9.55997 10.4348 9.47983 10.4495C4.38221 11.3872 4.64161 18.4836 11.1206 18.127C12.631 18.0439 16.8273 18.1483 18.7632 18.1483C23.6589 18.4331 23.2534 12.8862 19.8407 12.695C19.6941 12.6868 19.592 12.5317 19.6417 12.3935Z" stroke="white" stroke-width="1.5"/>
<path d="M10.55 4.96089C10.2122 3.41409 9.1173 2.14186 7.66471 1.53127C7.07687 1.28284 6.77119 1.5594 7.02514 2.14064C7.25557 2.66563 7.38255 3.24218 7.37784 3.85154C7.36844 6.11556 5.48735 8.03271 3.18772 8.12646C2.84913 8.14052 2.52464 8.11708 2.20956 8.06083C1.56529 7.94365 1.35837 8.29052 1.74399 8.81082C2.26788 9.52553 2.98828 10.0933 3.82729 10.4399" stroke="white" stroke-width="1.5" stroke-linecap="round" stroke-linejoin="round"/>
<path d="M10.8484 20.1958L9.73814 22.1368" stroke="white" stroke-width="1.5" stroke-linecap="round"/>
<path d="M16.4484 20.2959L15.3381 22.2369" stroke="white" stroke-width="1.5" stroke-linecap="round"/>
<path d="M13.0732 21.4524L12.5269 22.4279" stroke="white" stroke-width="1.5" stroke-linecap="round"/>
<path d="M18.9494 21.5635L18.4031 22.5389" stroke="white" stroke-width="1.5" stroke-linecap="round"/>
</g>
<defs>
<clipPath id="clip0_161_3058">
<rect width="24" height="24" fill="white"/>
</clipPath>
</defs>
</svg>
