<svg width="24" height="24" viewBox="0 0 24 24" fill="none" xmlns="http://www.w3.org/2000/svg">
<path d="M9.06927 3.0933L9.44722 2.23066M5.59229 2.94358L5.26291 2M2 9.44722L2.86053 9.1133M3.03695 5.43407L2.21877 5.03558M9.14988 5.43663C8.41594 4.6299 7.27163 4.31113 6.21302 4.72192C4.78724 5.27517 4.05681 6.94229 4.58156 8.44552C4.69165 8.76091 4.84825 9.04402 5.04016 9.28942" stroke="white" stroke-width="1.5" stroke-linecap="round"/>
<path d="M19.0918 11.9533C21.2028 6.09008 10.8201 2.98918 9.09762 9.85143C9.07778 9.93047 9.01005 9.9946 8.9299 10.0093C3.83228 10.947 4.09168 18.0434 10.5707 17.6868C12.0811 17.6037 16.2774 17.7081 18.2133 17.7081C23.109 17.9929 22.7035 12.446 19.2908 12.2549C19.1442 12.2466 19.042 12.0915 19.0918 11.9533Z" stroke="white" stroke-width="1.5"/>
<path d="M10.2985 19.7559L9.18821 21.6968" stroke="white" stroke-width="1.5" stroke-linecap="round"/>
<path d="M15.8985 19.856L14.7882 21.7969" stroke="white" stroke-width="1.5" stroke-linecap="round"/>
<path d="M12.5231 21.0122L11.9768 21.9877" stroke="white" stroke-width="1.5" stroke-linecap="round"/>
<path d="M18.3995 21.1235L17.8532 22.099" stroke="white" stroke-width="1.5" stroke-linecap="round"/>
</svg>
