<svg width="24" height="24" viewBox="0 0 24 24" fill="none" xmlns="http://www.w3.org/2000/svg">
<path d="M19.0917 11.9533C21.2026 6.09008 10.8199 2.98918 9.0975 9.85143C9.07766 9.93047 9.00992 9.9946 8.92978 10.0093C3.83216 10.947 4.09156 18.0434 10.5706 17.6868C12.081 17.6037 16.2773 17.7081 18.2132 17.7081C23.1089 17.9929 22.7034 12.446 19.2906 12.2549C19.144 12.2466 19.0419 12.0915 19.0917 11.9533Z" stroke="white" stroke-width="1.5"/>
<path fill-rule="evenodd" clip-rule="evenodd" d="M5.60911 6.14793C5.89881 5.0366 6.52592 4.38686 7.25304 4.04979C8.00236 3.70244 8.9135 3.66369 9.76254 3.89924C10.3042 4.0495 10.7902 4.30269 11.1741 4.62611C11.683 4.40323 12.2296 4.24759 12.8022 4.17081C12.1588 3.32434 11.1913 2.73897 10.1635 2.45383C9.0282 2.13886 7.74424 2.16876 6.62218 2.68891C5.55886 3.18183 4.68872 4.0946 4.25014 5.45193C2.13795 5.99824 1.0474 7.78823 1.28067 9.52468C1.40216 10.429 1.88303 11.2854 2.71329 11.8863C2.98872 12.0857 3.29747 12.2534 3.63779 12.3859C3.76413 11.8933 3.95284 11.4259 4.19494 10.9929C3.96061 10.9029 3.76079 10.7928 3.59278 10.6712C3.09971 10.3143 2.83479 9.82719 2.76732 9.32497C2.6344 8.33552 3.26862 7.15257 4.85453 6.85312C5.22234 6.78367 5.51613 6.50463 5.60911 6.14793Z" fill="white"/>
<path d="M10.2984 19.7559L9.18809 21.6968" stroke="white" stroke-width="1.5" stroke-linecap="round"/>
<path d="M15.8983 19.856L14.7881 21.7969" stroke="white" stroke-width="1.5" stroke-linecap="round"/>
<path d="M12.5231 21.0124L11.9768 21.9879" stroke="white" stroke-width="1.5" stroke-linecap="round"/>
<path d="M18.3994 21.1235L17.853 22.099" stroke="white" stroke-width="1.5" stroke-linecap="round"/>
</svg>
