<svg width="24" height="25" viewBox="0 0 24 25" fill="none" xmlns="http://www.w3.org/2000/svg">
<path d="M7.34163 16.1169C0.784126 15.7384 0.798614 8.28912 6.5114 7.27989C6.59155 7.26573 6.65948 7.20183 6.67946 7.12293C8.68997 -0.815511 20.9499 2.78452 18.4014 9.5639C18.3495 9.70187 18.4517 9.85895 18.599 9.86502C22.4309 10.023 23.0922 15.7833 18.2793 16.1366" stroke="white" stroke-width="1.5" stroke-linecap="round"/>
<path d="M7.49844 19.356L6.38816 21.2969" stroke="white" stroke-width="1.5" stroke-linecap="round"/>
<path d="M18.4984 19.356L17.3882 21.2969" stroke="white" stroke-width="1.5" stroke-linecap="round"/>
<path d="M4.19952 18.6235L3.65321 19.599" stroke="white" stroke-width="1.5" stroke-linecap="round"/>
<path d="M10.1088 17.7647H11.5204V21.3821C11.5204 21.9147 12.1234 22.1659 12.4432 21.764L15.9014 17.4431C16.2029 17.0663 15.9607 16.4784 15.5039 16.4784H14.0923V12.8609C14.0923 12.3284 13.4893 12.0771 13.1696 12.4791L9.71141 16.8C9.41447 17.1768 9.65658 17.7647 10.1088 17.7647Z" stroke="white" stroke-width="1.5" stroke-miterlimit="10" stroke-linecap="round" stroke-linejoin="round"/>
</svg>
